<?xml version="1.0" encoding="utf-8"?>
<!-- Generator: Adobe Illustrator 21.0.0, SVG Export Plug-In . SVG Version: 6.00 Build 0)  -->
<svg version="1.1" id="Layer_1" xmlns="http://www.w3.org/2000/svg" xmlns:xlink="http://www.w3.org/1999/xlink" x="0px" y="0px"
	 viewBox="0 0 44.5 26.5" style="enable-background:new 0 0 44.5 26.5;" xml:space="preserve">
<path d="M44,12.2L30.4,0.4c-0.6-0.5-1.6-0.5-2.1,0.2c-0.5,0.6-0.5,1.6,0.2,2.1L39,11.8H1.5c-0.8,0-1.5,0.7-1.5,1.5s0.7,1.5,1.5,1.5
	h37.7l-6,5.3l-4.7,3.7c-0.6,0.5-0.8,1.5-0.2,2.1c0.3,0.4,0.7,0.6,1.2,0.6c0.3,0,0.7-0.1,0.9-0.3l4.7-3.7l8.8-7.9
	c0.3-0.3,0.5-0.7,0.5-1.1C44.6,12.9,44.4,12.5,44,12.2z"/>
</svg>
